<svg xmlns="http://www.w3.org/2000/svg" width="750" height="450" viewBox="0 0 750 450">
  <defs>
    <style>
      .cls-1 {
        fill: #00c4f0;
        fill-rule: evenodd;
      }
    </style>
  </defs>
  <path id="UX_UI" data-name="UX/UI" class="cls-1" d="M10.657,138.431v92.6a93.268,93.268,0,0,0,2.5,21.781c7.975,33.088,34.281,56.417,71.418,56.417s63.324-23.329,71.3-56.417a100.115,100.115,0,0,0,2.5-21.781v-92.6h-35.59v93.194a59.28,59.28,0,0,1-2.142,15.949c-4.4,15.949-16.188,28.685-36.185,28.685-19.759,0-31.543-12.736-36.066-28.685a59.269,59.269,0,0,1-2.143-15.949V138.431H10.657ZM174.736,309.109h43.922l41.9-61.416,41.9,61.416H346.5l-65.347-90.1,58.324-80.459H295.789l-35.232,51.537L225.324,138.55H181.64l58.325,80.459Zm289.418-203.29L355.48,343.268h37.5L501.649,105.819h-37.5Zm58.977,32.612v92.6a93.236,93.236,0,0,0,2.5,21.781c7.975,33.088,34.28,56.417,71.417,56.417s63.324-23.329,71.3-56.417a100.115,100.115,0,0,0,2.5-21.781v-92.6h-35.59v93.194a59.241,59.241,0,0,1-2.143,15.949c-4.4,15.949-16.188,28.685-36.185,28.685-19.759,0-31.543-12.736-36.066-28.685a59.28,59.28,0,0,1-2.142-15.949V138.431h-35.59ZM703.637,309.109h35.709V138.431H703.637V309.109Z"/>
</svg>
